<?xml version="1.0" encoding="UTF-8"?><svg id="Ebene_1" xmlns="http://www.w3.org/2000/svg" viewBox="0 0 169.87 158.26"><defs><style>.cls-1{fill:#1d1d1b;}</style></defs><path class="cls-1" d="M168.02,63.34l-36.19-28.61L90.1,1.74c-2.94-2.32-7.4-2.32-10.33,0L38.03,34.73,1.84,63.34c-3.77,2.98-1.37,8.47,3.71,8.47h13.8v60.34c0,14.42,11.69,26.11,26.11,26.11h17.35v-44.62c0-5.57,4.52-10.09,10.09-10.09h24.06c5.57,0,10.09,4.52,10.09,10.09v44.62h17.35c14.42,0,26.11-11.69,26.11-26.11v-60.34h13.8c5.07,0,7.48-5.49,3.71-8.47Z"/></svg>